<?xml version="1.0" standalone="no"?>
<!DOCTYPE svg PUBLIC "-//W3C//DTD SVG 20010904//EN"
 "http://www.w3.org/TR/2001/REC-SVG-20010904/DTD/svg10.dtd">
<svg version="1.0" xmlns="http://www.w3.org/2000/svg"
 width="500.000000pt" height="500.000000pt" viewBox="0 0 500.000000 500.000000"
 preserveAspectRatio="xMidYMid meet">

<g transform="translate(0.000000,500.000000) scale(0.100000,-0.100000)"
fill="#000000" stroke="none">
<path d="M3828 3534 c-43 -7 -88 -16 -100 -20 -24 -7 -104 -86 -206 -201 -53
-59 -75 -76 -130 -99 -161 -67 -242 -158 -242 -272 0 -43 -4 -52 -39 -86 -34
-33 -42 -37 -53 -25 -8 8 -67 74 -132 148 -147 168 -265 330 -314 432 -20 43
-39 78 -42 78 -3 1 -25 -33 -49 -75 -50 -86 -128 -197 -210 -299 -91 -114
-333 -355 -370 -371 -19 -8 -53 -29 -75 -48 -118 -96 -390 -297 -453 -334 -91
-55 -99 -65 -84 -98 6 -14 11 -40 11 -59 0 -26 7 -38 31 -55 29 -22 30 -23 12
-43 -15 -18 -12 -17 17 4 108 78 91 72 151 55 91 -26 383 -137 502 -190 31
-14 57 -24 57 -22 0 8 -122 77 -197 110 -45 20 -175 67 -290 105 l-208 69 -3
39 c-3 37 -1 39 80 98 88 64 181 135 237 182 19 15 86 67 148 114 63 47 161
132 218 188 57 55 109 101 115 101 6 0 9 4 6 8 -5 9 45 63 60 65 5 1 9 8 10
15 4 21 25 42 37 35 5 -3 7 -1 4 4 -8 13 17 36 28 25 5 -4 5 -1 1 6 -12 20 4
35 22 20 15 -11 15 -11 5 3 -14 17 0 39 24 39 7 0 10 6 7 13 -3 8 2 20 11 27
14 12 18 11 25 0 5 -8 12 -11 17 -7 4 5 2 11 -4 15 -15 10 -9 48 7 44 6 -1 10
3 8 10 -3 7 6 23 18 35 12 12 26 32 29 44 6 17 9 19 16 8 14 -22 10 -39 -8
-39 -13 0 -14 -3 -6 -8 9 -6 6 -18 -14 -47 -15 -22 -25 -40 -23 -40 7 0 -105
-159 -141 -200 -17 -19 -36 -32 -42 -28 -6 4 -7 1 -2 -6 5 -9 -40 -59 -135
-152 -78 -76 -145 -137 -149 -135 -3 2 -15 -1 -26 -5 -18 -9 -18 -9 2 -5 13 2
25 1 28 -4 3 -4 -11 -7 -30 -6 -19 1 -31 -2 -26 -7 12 -12 -7 -67 -21 -64 -31
6 -11 -30 55 -103 41 -45 81 -94 88 -108 7 -15 21 -38 30 -52 34 -51 261 -516
278 -570 6 -19 17 -55 25 -80 l15 -45 1 37 c0 26 6 41 22 52 39 28 51 21 43
-24 -4 -22 -4 -40 -1 -40 3 0 29 14 58 30 298 170 512 225 895 231 125 2 141
4 130 18 -10 12 -9 14 6 8 11 -4 16 -3 12 3 -3 6 -18 11 -33 11 -25 2 -25 2
-4 6 22 4 23 5 5 18 -17 14 -17 14 4 15 16 0 34 -16 60 -50 20 -28 45 -50 54
-50 20 0 49 -31 49 -52 0 -29 -28 -41 -85 -36 -32 3 -54 1 -52 -5 1 -5 30 -20
62 -33 33 -14 67 -32 75 -40 14 -15 9 -16 -47 -11 -73 6 -75 20 20 -137 48
-80 58 -102 49 -116 -7 -12 -7 -21 -1 -27 6 -6 9 -30 7 -54 l-3 -44 -530 -5
c-572 -5 -560 -4 -609 -59 -18 -19 -29 -21 -162 -21 -138 0 -143 1 -161 24
-18 23 -83 56 -134 69 -120 30 -260 40 -581 42 -186 0 -341 4 -344 8 -4 4 22
7 58 7 37 0 146 7 245 15 98 8 214 16 258 18 52 2 34 4 -50 5 -71 1 -193 -5
-270 -13 -166 -17 -235 -19 -235 -5 0 6 6 10 14 10 7 0 19 7 26 15 10 12 9 15
-4 15 -11 0 -14 4 -10 12 4 7 -6 2 -23 -10 -47 -33 -51 -70 -13 -125 18 -27
42 -49 62 -56 20 -7 173 -11 455 -11 l424 0 22 -23 c12 -13 31 -36 42 -51 l20
-28 171 -5 c94 -3 183 -3 198 1 17 4 32 19 44 43 9 21 28 43 42 50 19 10 146
13 542 13 l517 0 21 22 c17 18 20 35 20 106 0 46 -5 93 -11 104 -8 14 -8 23 0
31 6 6 11 43 11 82 0 66 -2 73 -31 103 l-31 32 17 36 c21 45 16 58 -59 142
-72 81 -154 203 -183 272 -47 114 -26 162 112 256 127 86 171 128 202 193 23
47 28 69 28 136 0 68 -5 88 -29 135 -15 30 -35 63 -43 72 -14 16 -9 25 55 99
78 91 89 119 102 257 14 143 -6 166 -132 146z m26 -29 c-39 -31 -51 -35 -70
-21 -16 13 -14 15 31 28 57 17 67 15 39 -7z m78 -15 c7 0 6 -5 -2 -14 -6 -8
-18 -12 -26 -9 -10 3 -12 0 -8 -10 8 -22 -14 -31 -42 -16 l-24 13 31 32 c28
28 34 31 46 18 8 -8 19 -14 25 -14z m-147 -36 c11 -8 34 -25 50 -37 17 -12 30
-28 30 -36 0 -8 15 -19 33 -23 18 -5 35 -15 38 -22 7 -18 -42 -101 -51 -86 -4
6 -25 10 -48 8 -41 -3 -42 -2 -45 30 -3 26 -9 36 -32 43 -19 7 -30 19 -33 38
-4 20 -14 31 -32 35 -31 8 -31 15 -4 50 23 30 54 30 94 0z m-1200 -21 c3 -15
20 -47 36 -71 16 -23 29 -50 29 -58 0 -7 4 -14 8 -14 5 0 25 -24 45 -53 20
-29 44 -61 54 -72 10 -11 37 -45 60 -75 23 -30 87 -106 143 -169 74 -84 98
-116 88 -122 -7 -5 -17 -9 -21 -9 -10 0 -58 49 -93 97 -16 21 -73 89 -128 153
-150 176 -265 357 -251 399 9 29 22 26 30 -6z m1365 -17 c0 -18 -19 -31 -28
-21 -4 4 -1 10 6 12 6 3 10 9 6 14 -3 5 0 9 5 9 6 0 11 -6 11 -14z m-242 -63
c3 -26 8 -33 33 -38 17 -4 28 -12 26 -18 -2 -7 2 -24 10 -39 13 -27 12 -30
-14 -32 -7 -1 -12 -6 -10 -11 1 -6 6 -9 10 -7 5 1 0 -9 -10 -22 -10 -14 -21
-26 -25 -26 -12 0 -19 18 -9 25 6 3 8 12 5 19 -3 8 6 22 19 33 21 17 22 20 9
33 -14 13 -15 12 -10 -2 4 -10 -3 -25 -19 -39 -22 -21 -25 -21 -19 -5 6 16 4
17 -9 6 -13 -11 -13 -15 -3 -21 12 -8 4 -13 -15 -10 -5 1 -5 -4 -2 -10 5 -8
10 -8 18 0 15 15 30 14 20 -1 -4 -7 -6 -21 -5 -30 2 -9 -5 -26 -15 -37 -21
-25 -41 -28 -22 -3 13 15 12 16 -3 4 -9 -8 -15 -19 -12 -26 3 -7 -12 -31 -33
-53 -35 -37 -192 -208 -238 -259 -11 -12 -53 -59 -94 -104 -41 -45 -92 -104
-115 -131 -50 -62 -78 -64 -87 -4 -5 33 -2 45 18 72 29 37 16 43 -26 12 -23
-17 -32 -19 -50 -10 -11 7 -21 14 -21 16 0 21 63 110 118 168 123 129 216 231
372 411 133 154 156 177 179 174 21 -2 27 -9 29 -35z m156 -128 c3 -8 1 -15
-4 -15 -6 0 -10 7 -10 15 0 8 2 15 4 15 2 0 6 -7 10 -15z m-44 -16 c-15 -26
-6 -36 17 -19 10 7 0 -3 -21 -23 -30 -27 -43 -34 -53 -25 -9 7 -13 7 -13 0 0
-6 8 -16 18 -21 9 -6 12 -11 5 -11 -6 0 -15 5 -19 11 -4 6 -17 -2 -35 -23 -29
-34 -37 -52 -18 -46 6 2 11 8 11 13 1 11 37 39 43 33 9 -8 -117 -138 -127
-132 -6 4 -8 2 -5 -3 6 -10 -46 -74 -163 -198 -26 -27 -78 -86 -116 -130 -38
-45 -82 -94 -97 -110 -29 -32 -34 -45 -16 -45 6 0 1 -13 -11 -30 -18 -25 -25
-28 -41 -20 -20 11 -27 60 -8 60 5 0 20 21 31 48 11 26 24 49 27 52 4 3 56 59
116 125 61 66 127 139 149 162 21 23 43 40 47 37 5 -3 6 1 4 9 -4 8 21 39 60
76 36 34 65 65 65 67 0 2 25 30 56 61 30 31 54 52 52 47 -2 -5 1 -10 7 -12 5
-1 10 8 10 20 0 13 7 28 15 35 21 17 22 16 10 -8z m-459 -86 c-39 -54 -201
-208 -201 -191 0 53 73 142 155 189 63 36 72 36 46 2z m400 -216 c31 -72 31
-157 -1 -222 -28 -57 -137 -171 -207 -215 -53 -34 -106 -39 -153 -15 -32 16
-60 61 -60 94 0 30 370 433 386 420 6 -5 22 -33 35 -62z m-763 -247 c-12 -37
0 -56 43 -65 18 -4 29 -13 29 -23 0 -9 5 -34 11 -54 8 -30 15 -38 33 -38 30 0
40 -32 17 -57 -9 -10 -66 -74 -126 -143 -60 -69 -112 -127 -115 -130 -3 -3
-14 -16 -24 -30 -25 -33 37 32 138 145 163 180 151 169 164 152 11 -13 -10
-42 -135 -184 -152 -174 -199 -219 -277 -263 -65 -37 -148 -88 -173 -106 -20
-14 -22 -13 -48 20 l-27 35 40 128 c22 70 43 141 46 157 4 16 18 41 31 55 13
14 56 64 97 111 40 47 86 99 102 115 16 17 62 69 103 118 42 48 77 87 79 87 2
0 -2 -14 -8 -30z m-528 -426 c0 -291 -7 -395 -29 -408 -3 -2 -5 160 -3 360 2
313 5 364 17 364 13 0 15 -44 15 -316z"/>
<path d="M3884 3487 c-4 -7 -4 -9 1 -5 4 4 14 3 22 -3 8 -7 13 -8 13 -1 0 15
-28 23 -36 9z"/>
<path d="M3868 3443 c7 -3 16 -2 19 1 4 3 -2 6 -13 5 -11 0 -14 -3 -6 -6z"/>
<path d="M3658 3175 c-4 -4 -4 -13 -1 -21 3 -8 1 -14 -4 -14 -4 0 -14 -10 -22
-22 -13 -22 -12 -22 15 2 16 14 30 25 30 25 1 0 -1 8 -5 18 -4 10 -10 15 -13
12z"/>
<path d="M3654 3024 c-18 -14 -18 -14 6 -3 31 14 36 19 24 19 -6 0 -19 -7 -30
-16z"/>
<path d="M2496 3295 c-9 -26 -7 -32 5 -12 6 10 9 21 6 23 -2 3 -7 -2 -11 -11z"/>
<path d="M1935 2660 c-3 -5 -2 -10 4 -10 5 0 13 5 16 10 3 6 2 10 -4 10 -5 0
-13 -4 -16 -10z"/>
<path d="M1340 2075 c-7 -8 -41 -29 -76 -45 l-62 -30 5 -94 c4 -64 2 -95 -6
-100 -21 -14 1 -90 53 -178 l51 -88 45 0 c25 0 110 7 190 16 241 26 511 5 643
-51 22 -9 36 -11 32 -6 -9 16 -184 68 -339 101 -172 36 -307 50 -481 50 -91 0
-136 4 -141 12 -5 8 7 10 44 5 28 -3 52 -3 54 2 4 9 365 -5 469 -19 165 -23
419 -102 473 -148 20 -16 20 -16 6 1 -71 93 -599 206 -957 207 -45 0 -89 3
-98 6 -29 11 21 54 63 54 29 0 33 -2 22 -15 -11 -13 -1 -15 78 -15 105 0 407
-34 541 -61 52 -10 96 -17 98 -15 14 14 -502 103 -702 121 -133 12 -151 21
-95 50 32 17 54 20 46 6 -3 -4 34 -11 82 -14 144 -11 431 -56 526 -82 106 -30
124 -28 27 3 -114 37 -393 90 -544 104 -78 7 -131 15 -117 16 27 4 50 19 50
33 0 4 -15 10 -32 12 -27 3 -26 4 7 4 23 -1 45 2 51 5 6 4 30 2 53 -3 24 -5
46 -8 48 -5 8 7 -131 46 -165 46 -42 0 -48 15 -12 30 29 12 44 11 85 -6 17 -7
18 -6 5 8 -8 9 -17 15 -20 13 -3 -2 -14 3 -25 11 -18 14 -18 15 15 44 19 16
32 29 29 30 -4 0 -12 -7 -19 -15z m423 -474 c59 -10 109 -20 111 -22 3 -2 -68
-3 -157 -1 -93 1 -208 -3 -269 -11 -60 -7 -108 -10 -108 -6 0 10 23 26 45 32
11 2 -2 6 -30 7 -38 1 -45 4 -30 10 39 17 323 11 438 -9z"/>
<path d="M1493 1603 c31 -2 83 -2 115 0 31 2 5 3 -58 3 -63 0 -89 -1 -57 -3z"/>
<path d="M1822 1843 c2 -12 30 -25 94 -43 131 -38 245 -107 374 -224 40 -37
46 -40 20 -12 -101 111 -270 216 -453 282 -35 12 -38 12 -35 -3z"/>
<path d="M2095 1644 c22 -8 56 -22 75 -31 19 -8 40 -18 45 -20 6 -2 1 3 -9 11
-22 18 -120 56 -139 55 -7 0 6 -7 28 -15z"/>
<path d="M2244 1428 c10 -7 40 -28 65 -47 34 -25 40 -27 23 -9 -12 13 -41 34
-65 47 -23 12 -33 16 -23 9z"/>
</g>
</svg>
